<?xml version="1.0" encoding="utf-8"?>
<!-- Generator: Adobe Illustrator 22.0.1, SVG Export Plug-In . SVG Version: 6.00 Build 0)  -->
<svg version="1.1" id="Livello_1" xmlns="http://www.w3.org/2000/svg" xmlns:xlink="http://www.w3.org/1999/xlink" x="0px" y="0px"
	 viewBox="0 0 125.7 78.9" style="enable-background:new 0 0 125.7 78.9;" xml:space="preserve">
<style type="text/css">
	.st0{fill:#C8C8CB;}
	.st1{fill:#D31547;}
	.st2{fill:#D31548;}
</style>
<g>
	<path class="st0" d="M70.6,32.7c0,18.1-14.7,32.7-32.7,32.7S5.1,50.8,5.1,32.7C5.1,14.7,19.7,0,37.8,0S70.6,14.7,70.6,32.7"/>
	<path class="st1" d="M118.2,32.7c0,18.1-14.7,32.7-32.7,32.7S52.7,50.8,52.7,32.7C52.7,14.7,67.4,0,85.4,0S118.2,14.7,118.2,32.7"
		/>
	<path class="st0" d="M124.3,3c0.9,0.9,1.4,2.1,1.4,3.4c0,1.4-0.5,2.5-1.4,3.4c-0.9,0.9-2,1.3-3.3,1.3c-1.3,0-2.5-0.5-3.4-1.4
		c-0.9-0.9-1.4-2.1-1.4-3.4c0-1.4,0.5-2.6,1.5-3.5c0.9-0.9,2-1.3,3.3-1.3C122.2,1.6,123.3,2.1,124.3,3 M120.9,2.5
		c-1.1,0-2,0.4-2.8,1.2c-0.8,0.8-1.1,1.7-1.1,2.8c0,1.1,0.4,2,1.2,2.8c0.8,0.8,1.7,1.2,2.8,1.2c1.1,0,2-0.4,2.8-1.2
		c0.8-0.8,1.2-1.7,1.2-2.8c0-1.1-0.4-2-1.1-2.8C122.9,2.9,122,2.5,120.9,2.5 M120.2,7.1v1.7H119V4c0.3,0,0.8,0,1.3,0
		c0.6,0,0.9,0,1,0c0.4,0,0.7,0.1,1,0.2c0.4,0.2,0.6,0.6,0.6,1.2c0,0.4-0.1,0.7-0.3,0.9c-0.2,0.2-0.5,0.3-0.8,0.3
		c0.3,0.1,0.5,0.2,0.7,0.3c0.3,0.2,0.4,0.6,0.4,1.1v0.4c0,0,0,0.1,0,0.1c0,0,0,0.1,0,0.1l0,0.1h-1.2c0-0.2-0.1-0.4-0.1-0.7
		c0-0.3,0-0.5-0.1-0.6c-0.1-0.2-0.2-0.3-0.4-0.4c-0.1,0-0.2-0.1-0.4-0.1l-0.3,0H120.2z M120.7,6.3c0.3,0,0.5-0.1,0.7-0.2
		c0.2-0.1,0.2-0.3,0.2-0.6c0-0.3-0.1-0.4-0.4-0.6c-0.2-0.1-0.4-0.1-0.7-0.1h-0.3v1.4H120.7z"/>
	<path class="st0" d="M27.1,42.2l7.3-20.4h6.8l7.3,20.4h-6.7l-0.8-2.7h-6.7l-0.8,2.7H27.1z M37.7,28l-2.1,7.3h4.2L37.7,28z"/>
	<path class="st2" d="M49,42.6h-7.4l-0.8-2.7h-6.1l-0.8,2.7h-7.3l7.6-21.1h7.3L49,42.6z M42.1,41.9H48L41,22.2h-6.3l-7.1,19.7h5.8
		l0.8-2.7h7.2L42.1,41.9z M40.4,35.6h-5.2l2.5-8.9L40.4,35.6z M36.1,34.9h3.3l-1.7-5.7L36.1,34.9z"/>
	<polygon class="st0" points="68.5,34.4 68.6,34.4 70.9,21.8 77.4,21.8 72.3,42.2 65.7,42.2 63.4,30.4 63.3,30.4 61,42.2 54.4,42.2 
		49.3,21.8 55.8,21.8 58.1,34.4 58.1,34.4 60.6,21.8 66.1,21.8 	"/>
	<path class="st2" d="M72.6,42.6h-7.1l-2.1-10.5l-2.1,10.5h-7.1l-5.2-21.1h7.2l2,11.2l2.2-11.2h6.1l2.2,11.2l2-11.2h7.2L72.6,42.6z
		 M66,41.9h6l4.9-19.7h-5.7l-2.3,12.6h-0.6l-0.1-0.3l-2.4-12.3h-4.9l-2.4,12.6h-0.6l-0.1-0.3l-2.2-12.3h-5.7l4.9,19.7h6L63,30h0.6
		l0.1,0.3L66,41.9z"/>
	<path class="st0" d="M80.6,42.2V21.8h9.8c5.9,0,8.7,2.7,8.7,6.9c0,4.4-2.6,7.2-8.5,7.2h-3.4v6.3H80.6z M90,31.1
		c1.6,0,2.7-0.6,2.7-2.4c0-1.9-2.2-2.2-3.6-2.2h-1.9v4.5H90z"/>
	<path class="st2" d="M87.6,42.6h-7.4V21.5h10.2c5.8,0,9,2.6,9,7.2c0,4.9-3.1,7.5-8.8,7.5h-3V42.6z M80.9,41.9h6v-6.3h3.7
		c5.3,0,8.1-2.4,8.1-6.8c0-4.2-3-6.5-8.3-6.5h-9.5V41.9z M90,31.5h-3.1v-5.2h2.3c3.2,0,3.9,1.4,3.9,2.5C93.1,30.5,92,31.5,90,31.5
		 M87.6,30.8H90c1.6,0,2.3-0.6,2.3-2c0-1.2-1.1-1.8-3.2-1.8h-1.5V30.8z"/>
	<path class="st0" d="M0,78.7l2.3-6.4h2.1l2.3,6.4H4.6l-0.2-0.8H2.3L2,78.7H0z M3.3,74.3l-0.6,2.3H4L3.3,74.3z"/>
	<path class="st0" d="M7.1,74.1h1.7v0.7c0.4-0.6,0.9-0.9,1.6-0.9c1.2,0,1.8,0.7,1.8,2v2.8h-1.8v-2.5c0-0.5-0.1-0.9-0.6-0.9
		c-0.6,0-0.7,0.4-0.7,1v2.4H7.1V74.1z"/>
	<path class="st0" d="M13.1,72.2h1.8v1.3h-1.8V72.2z M13.1,74.1h1.8v4.6h-1.8V74.1z"/>
	<path class="st0" d="M15.8,74.1h1.7v0.7c0.2-0.4,0.8-0.8,1.5-0.8c0.8,0,1.3,0.4,1.5,0.9c0.4-0.6,0.9-0.9,1.6-0.9
		c1.4,0,1.8,0.8,1.8,2v2.7H22v-2.4c0-0.7-0.1-1-0.6-1c-0.5,0-0.6,0.5-0.6,1v2.3h-1.8v-2.4c0-0.7-0.1-1-0.6-1c-0.5,0-0.6,0.5-0.6,1
		v2.3h-1.8V74.1z"/>
	<path class="st0" d="M27.8,78.7l-0.1-0.5c-0.5,0.5-1.1,0.6-1.7,0.6c-0.9,0-1.7-0.4-1.7-1.4c0-2.1,3.3-1.2,3.3-2
		c0-0.3-0.4-0.4-0.6-0.4c-0.3,0-0.6,0.1-0.6,0.5h-1.8c0-1,0.7-1.6,2.5-1.6c2.2,0,2.3,0.8,2.3,1.9v2.2c0,0.3,0,0.4,0.2,0.6v0.1H27.8z
		 M27.7,76.7c-0.6,0.3-1.4,0.2-1.4,0.8c0,0.2,0.2,0.4,0.6,0.4C27.5,77.8,27.7,77.3,27.7,76.7"/>
	<rect x="30.5" y="72.4" class="st0" width="1.8" height="6.4"/>
	<polygon class="st0" points="41.7,76.3 41.7,76.3 42.5,72.4 44.5,72.4 42.9,78.7 40.8,78.7 40.1,75 40.1,75 39.4,78.7 37.3,78.7 
		35.7,72.4 37.7,72.4 38.5,76.3 38.5,76.3 39.2,72.4 41,72.4 	"/>
	<path class="st0" d="M46.4,76.8c0,0.5,0.4,0.9,0.9,0.9c0.3,0,0.6-0.1,0.7-0.4h1.8c-0.3,1.2-1.5,1.5-2.6,1.5c-1.5,0-2.6-0.9-2.6-2.4
		c0-1.5,1.1-2.5,2.6-2.5c1.7,0,2.8,1.2,2.7,2.9H46.4z M48.1,75.9c0-0.4-0.4-0.8-0.8-0.8c-0.5,0-0.9,0.3-0.9,0.8H48.1z"/>
	<rect x="50.6" y="72.4" class="st0" width="1.8" height="6.4"/>
	<rect x="53.5" y="72.4" class="st0" width="1.8" height="6.4"/>
	<path class="st0" d="M56.2,74.1h1.7v0.7c0.4-0.6,0.9-0.9,1.6-0.9c1.2,0,1.8,0.7,1.8,2v2.8h-1.8v-2.5c0-0.5-0.1-0.9-0.6-0.9
		c-0.6,0-0.7,0.4-0.7,1v2.4h-1.8V74.1z"/>
	<path class="st0" d="M63.7,76.8c0,0.5,0.4,0.9,0.9,0.9c0.3,0,0.6-0.1,0.7-0.4h1.8c-0.3,1.2-1.5,1.5-2.6,1.5c-1.5,0-2.6-0.9-2.6-2.4
		c0-1.5,1.1-2.5,2.6-2.5c1.7,0,2.8,1.2,2.7,2.9H63.7z M65.4,75.9c0-0.4-0.4-0.8-0.8-0.8c-0.5,0-0.9,0.3-0.9,0.8H65.4z"/>
	<path class="st0" d="M69.5,77.3c0,0.2,0.1,0.3,0.2,0.4c0.1,0.1,0.3,0.1,0.5,0.1c0.3,0,0.6-0.1,0.6-0.4c0-0.7-2.8-0.2-2.8-1.9
		c0-1.2,1.2-1.5,2.2-1.5c1,0,2.2,0.2,2.3,1.5h-1.7c0-0.2-0.1-0.3-0.2-0.3C70.4,75,70.3,75,70.2,75c-0.3,0-0.5,0.1-0.5,0.3
		c0,0.6,2.9,0.2,2.9,1.9c0,1-0.8,1.6-2.5,1.6c-1.1,0-2.2-0.3-2.3-1.6H69.5z"/>
	<path class="st0" d="M74.8,77.3c0,0.2,0.1,0.3,0.2,0.4c0.1,0.1,0.3,0.1,0.5,0.1c0.3,0,0.6-0.1,0.6-0.4c0-0.7-2.8-0.2-2.8-1.9
		c0-1.2,1.2-1.5,2.2-1.5c1,0,2.2,0.2,2.3,1.5H76c0-0.2-0.1-0.3-0.2-0.3C75.7,75,75.6,75,75.5,75c-0.3,0-0.5,0.1-0.5,0.3
		c0,0.6,2.9,0.2,2.9,1.9c0,1-0.8,1.6-2.5,1.6c-1.1,0-2.2-0.3-2.3-1.6H74.8z"/>
	<path class="st0" d="M81.4,78.7v-6.4h3.1c1.8,0,2.7,0.8,2.7,2.2c0,1.4-0.8,2.2-2.6,2.2h-1.1v2H81.4z M84.4,75.3
		c0.5,0,0.8-0.2,0.8-0.7c0-0.6-0.7-0.7-1.1-0.7h-0.6v1.4H84.4z"/>
	<path class="st0" d="M87.7,74.1h1.7V75h0c0.3-0.7,0.7-1.1,1.4-1.1c0.1,0,0.2,0,0.2,0v1.8c-0.1,0-0.3-0.1-0.4-0.1
		c-0.8,0-1.1,0.4-1.1,1.4v1.6h-1.8V74.1z"/>
	<path class="st0" d="M93.9,74c1.6,0,2.6,1,2.6,2.4c0,1.7-1.2,2.5-2.6,2.5c-1.5,0-2.6-0.8-2.6-2.4C91.2,74.9,92.3,74,93.9,74
		 M93.1,76.4c0,0.9,0.3,1.3,0.8,1.3c0.5,0,0.8-0.4,0.8-1.3c0-0.7-0.3-1.2-0.8-1.2C93.3,75.2,93.1,75.9,93.1,76.4"/>
	<path class="st0" d="M100.6,78.7v-0.6c-0.4,0.6-0.8,0.8-1.4,0.8c-1.4,0-2.1-1.1-2.1-2.4c0-1.5,0.9-2.5,2-2.5c0.6,0,1,0.1,1.4,0.6
		v-2.2h1.8v6.4H100.6z M100.4,76.5c0-0.5-0.2-1.1-0.8-1.1c-0.6,0-0.8,0.6-0.8,1.1c0,0.5,0.1,1.1,0.7,1.1
		C100.2,77.6,100.4,77,100.4,76.5"/>
	<path class="st0" d="M108,78.7h-1.7v-0.7c-0.5,0.6-0.9,0.8-1.7,0.8c-1,0-1.7-0.6-1.7-1.9v-2.8h1.8v2.5c0,0.6,0.2,0.8,0.7,0.8
		c0.5,0,0.7-0.4,0.7-1.1v-2.2h1.8V78.7z"/>
	<path class="st0" d="M112,75.9c0-0.2-0.1-0.4-0.2-0.5c-0.1-0.1-0.3-0.2-0.5-0.2c-0.7,0-0.8,0.7-0.8,1.3c0,0.7,0.3,1.2,0.8,1.2
		c0.5,0,0.7-0.3,0.7-0.7h1.9c-0.2,1.4-1.3,1.9-2.6,1.9c-1.5,0-2.6-0.8-2.6-2.4c0-1.6,1.1-2.5,2.6-2.5c1.2,0,2.4,0.5,2.5,1.9H112z"/>
	<path class="st0" d="M117.7,78.7c-2.4,0.1-2.7,0-2.7-1.6v-1.9h-0.7v-1.1h0.7v-1.4h1.8v1.4h0.9v1.1h-0.9v1.7c0,0.4,0.1,0.6,0.6,0.6
		h0.3V78.7z"/>
	<path class="st0" d="M120.1,77.3c0,0.2,0.1,0.3,0.2,0.4c0.1,0.1,0.3,0.1,0.5,0.1c0.3,0,0.6-0.1,0.6-0.4c0-0.7-2.8-0.2-2.8-1.9
		c0-1.2,1.2-1.5,2.2-1.5c1,0,2.2,0.2,2.3,1.5h-1.7c0-0.2-0.1-0.3-0.2-0.3c-0.1-0.1-0.2-0.1-0.4-0.1c-0.3,0-0.5,0.1-0.5,0.3
		c0,0.6,2.9,0.2,2.9,1.9c0,1-0.8,1.6-2.5,1.6c-1.1,0-2.2-0.3-2.3-1.6H120.1z"/>
</g>
</svg>
