<svg width="279" height="90" viewBox="0 0 279 90" fill="none" xmlns="http://www.w3.org/2000/svg">
<g filter="url(#filter0_d_6113_11888)">
<path d="M258.595 63.7729H10V70.0001H258.595V63.7729Z" fill="white"/>
<path fill-rule="evenodd" clip-rule="evenodd" d="M67.5881 53.3181H258.595V59.5804H64.3079L67.5881 53.3181Z" fill="white"/>
<path fill-rule="evenodd" clip-rule="evenodd" d="M11.9998 34.6893C10.9298 34.6893 10.0439 33.8035 10.0439 32.7335C10.0439 32.4178 10.1053 32.102 10.2983 31.8477V31.7863L21.0336 12.7803V12.7189C21.9194 11.1402 23.5595 10 25.5154 10H46.9245C47.7489 10 48.4418 10.6929 48.4418 11.5173C48.4418 11.8945 48.319 12.2102 48.0647 12.5259L48.1261 12.4645L28.4272 32.3564C27.3572 33.7421 25.6469 34.6893 23.7524 34.6893H11.9998Z" fill="white"/>
<path fill-rule="evenodd" clip-rule="evenodd" d="M49.5117 55.9143C50.0204 56.8001 49.7047 58.0017 48.7574 58.5016C48.5031 58.6946 48.1873 58.756 47.8716 58.756L47.8102 58.8174L26.0239 59.0103H25.9625C24.1295 59.0717 22.3666 58.1859 21.3492 56.4844L10.6753 37.9169C10.2368 37.224 10.4824 36.3382 11.184 35.8997C11.5612 35.7067 11.8769 35.6453 12.254 35.7067H12.1926L39.2237 42.846C40.9954 43.039 42.6355 44.0476 43.5827 45.6877L49.5117 55.9143Z" fill="white"/>
<path fill-rule="evenodd" clip-rule="evenodd" d="M49.1344 12.9734C49.6431 12.0876 50.836 11.7719 51.7832 12.2806C52.0375 12.4735 52.2919 12.6577 52.4147 12.9121L52.4761 12.9734L63.5271 31.7953H63.5885C64.5357 33.374 64.6585 35.3912 63.7113 37.0401L52.976 55.6075C52.5989 56.3004 51.6516 56.5548 50.9587 56.1162C50.643 55.932 50.3887 55.6777 50.2659 55.2918V55.3532L42.9424 28.3922C42.2495 26.7521 42.3109 24.8577 43.2581 23.2176L49.1344 12.9734Z" fill="white"/>
<path fill-rule="evenodd" clip-rule="evenodd" d="M90.1812 49.2134C90.497 49.2134 90.6899 49.2134 90.9355 49.2134C96.9346 48.9591 99.6535 46.9418 101.101 42.5828C101.732 40.8111 101.925 39.2324 101.794 37.7239C101.416 33.6192 99.9605 31.3476 96.5487 29.7075C96.233 29.5847 95.9172 29.3918 95.6015 29.3304C95.8558 29.269 96.1102 29.1374 96.3558 29.076C99.636 27.6903 101.215 24.4013 100.46 19.7967C99.636 15.2535 96.7329 13.0433 90.418 13.1047H90.1637V18.3495C91.1109 18.4723 91.6196 18.6039 91.9967 18.8582C93.7684 19.8055 94.4613 21.2614 94.2683 23.4014C94.1455 25.4187 92.751 27.0676 90.1637 27.3833V32.6895C90.418 32.6895 90.5408 32.7509 90.7338 32.8123C94.0842 33.5052 95.5313 35.3997 95.4085 38.5571C95.2857 41.3988 93.707 43.3546 90.611 43.609C90.4882 43.609 90.3566 43.609 90.1724 43.609V49.2134H90.1812ZM79.0074 40.3112C79.0074 43.0915 78.2532 43.8458 76.6744 43.4073C75.2185 42.9687 74.2099 43.6616 73.8327 45.1789C73.2627 47.8276 74.3414 49.4765 76.2973 49.345C76.4902 49.345 76.6744 49.2836 76.9288 49.2836L77.9374 49.1608L78.4461 49.0994C80.6563 48.7836 82.0421 48.7223 83.1823 48.8451C87.3483 49.0994 88.927 49.2222 90.19 49.2222V43.6002C85.8924 43.9773 84.9451 43.0301 84.9451 40.0042V34.9524C84.9451 34.8296 84.9451 34.6366 84.9451 34.3823C85.0065 33.2421 85.2609 32.8035 86.0152 32.7422L86.3309 32.6807H86.7081C88.7253 32.6194 89.5497 32.6194 90.1812 32.6807V27.3745C90.0584 27.3745 89.8655 27.3745 89.6111 27.4359L88.1552 27.5587H87.208H86.6993H86.0064C85.2521 27.4973 84.9364 26.9886 84.9364 25.6029V20.8053C84.9364 20.6825 84.9364 20.551 84.9364 20.4282C85.2521 18.5951 85.8836 18.218 89.4796 18.3408C89.7953 18.3408 89.9883 18.3408 90.1724 18.3408V13.0959C89.7953 13.0959 89.2866 13.0959 88.7867 13.1573L86.2607 13.3503L84.875 13.4117C81.6562 13.5344 80.016 13.5345 78.4373 13.2889L77.1744 13.0959L76.92 13.0345C74.9642 12.7802 73.7626 13.666 73.7012 15.4991V15.9376C73.7012 16.3147 73.7626 16.6919 73.824 17.1392C74.2011 18.6565 75.2097 19.3494 76.6657 18.9723C78.2444 18.4636 78.9987 19.2266 78.9987 22.0683V40.3112H79.0074Z" fill="white"/>
<path fill-rule="evenodd" clip-rule="evenodd" d="M109.442 41.9515C109.442 42.0743 109.442 42.2058 109.442 42.2672C109.319 43.3373 109.249 43.653 109.126 43.8459C108.871 44.1617 108.617 44.2231 108.433 44.1617L108.24 44.0389L107.486 43.8459C107.231 43.8459 107.047 43.7845 106.854 43.7845C105.714 43.6618 104.767 45.3633 105.275 47.5121C105.591 48.8364 106.416 49.3451 108.056 49.1522L108.687 49.0908L109.512 49.0294C111.529 48.775 112.73 48.775 114.686 49.0294L116.072 49.1522C118.221 49.275 119.037 48.4593 119.037 46.4333C118.975 44.3459 118.028 43.4688 116.704 43.8459L115.756 44.1617C115.125 44.0389 114.932 43.8459 114.809 42.3286C114.809 42.2058 114.809 42.0743 114.809 41.9515L114.932 24.7084V24.3927V23.1911C114.871 22.1211 114.555 21.6738 113.669 21.6738C113.546 21.6124 113.415 21.6124 113.292 21.6738L112.722 21.7352L111.897 21.8579C111.143 21.9807 110.512 21.9807 109.687 21.9193C109.433 21.9193 109.178 21.8579 108.933 21.8579C106.6 21.4808 105.582 22.1123 105.267 23.498C105.205 23.9366 105.144 24.4453 105.144 24.8224V25.1382C105.144 26.7783 106.091 27.6641 107.161 27.5413C107.354 27.4799 107.538 27.4185 107.731 27.3484C108.617 27.094 108.994 27.3484 109.187 28.2342L109.31 28.6727V28.9271C109.433 29.3656 109.433 29.7515 109.433 30.1901V41.9515H109.442ZM107.801 14.9291C107.801 17.2621 109.38 19.2268 111.397 19.2268C112.345 19.2268 113.23 18.7882 113.923 17.9638C115.248 16.3237 115.248 13.6048 113.923 11.9647C113.23 11.1402 112.345 10.7017 111.397 10.7017C109.38 10.6929 107.801 12.6575 107.801 14.9291Z" fill="#FBFBFB"/>
<path fill-rule="evenodd" clip-rule="evenodd" d="M131.921 49.6608C132.613 49.6608 133.306 49.5994 134.069 49.538C138.928 48.7135 142.34 43.6616 142.401 35.5225C142.401 26.4273 138.358 21.1913 131.921 21.1211V26.6115C134.885 26.6729 136.534 28.9445 136.718 34.1893C136.78 35.0752 136.78 35.8909 136.718 36.7767C136.464 41.39 135.394 43.4073 132.991 44.1002C132.675 44.1616 132.298 44.223 131.921 44.223V49.6608ZM121.317 35.5137C121.378 44.5475 125.36 49.6608 131.929 49.6608V44.2317C131.552 44.2317 131.175 44.1703 130.789 44.1089C128.386 43.4161 127.316 41.3901 127 36.7855C127 36.3469 127 35.8996 127 35.5225C127 35.084 127 34.6367 127 34.1981C127.316 28.9533 128.956 26.6203 131.859 26.6203H131.921V21.1299H131.859C125.422 21.1123 121.317 26.3572 121.317 35.5137Z" fill="#FBFBFB"/>
<path fill-rule="evenodd" clip-rule="evenodd" d="M159.768 28.2516C158.627 29.3216 158.566 31.4704 159.768 32.8562C160.46 33.742 161.723 34.1191 163.179 33.549C165.012 32.9176 165.96 30.3916 165.074 27.1114C164.188 23.8926 161.855 21.8051 157.873 21.3052C156.733 21.1824 155.54 21.2438 154.461 21.4982C149.725 22.6997 146.761 26.5501 146.059 32.8649C144.919 42.0829 149.339 49.0292 155.338 49.5993C159.25 49.9764 161.908 48.7135 163.863 45.8104C166.705 41.7671 166.135 38.5483 164.434 37.3467C164.179 37.2239 163.863 37.031 163.548 37.031C162.03 36.7766 161.145 37.6625 160.645 39.6797C159.697 43.1529 158.434 44.2229 155.786 43.7844C153.83 43.4072 151.997 40.9427 151.488 36.838C151.365 35.768 151.365 34.7506 151.427 33.742C151.935 29.2602 154.146 26.6027 156.733 26.6027C158.057 26.5413 158.882 26.9798 159.575 27.9271C159.645 27.9972 159.706 28.1288 159.768 28.2516Z" fill="white"/>
<path fill-rule="evenodd" clip-rule="evenodd" d="M171.643 41.9515C171.643 42.0743 171.643 42.2058 171.643 42.3286C171.581 43.3986 171.45 43.653 171.389 43.8459C171.134 44.1617 170.95 44.2231 170.757 44.1617L170.634 44.1003L169.81 43.8459C169.617 43.8459 169.371 43.7845 169.178 43.7845C168.038 43.6617 167.091 45.3632 167.661 47.512C167.915 48.8364 168.731 49.3451 170.441 49.1522L170.757 49.0908L171.827 49.0294C173.844 48.775 174.353 48.775 176.309 49.0294L177.765 49.1522C179.914 49.2749 180.352 48.5207 180.352 46.4333C180.352 44.4774 178.081 43.9687 178.081 43.9687C178.081 43.9687 177.195 43.8459 177.072 42.3286C177.072 42.2058 177.072 42.0743 177.072 41.9515V34.3122C177.072 30.269 177.703 28.6903 179.659 27.3659C180.036 27.1115 180.484 26.9274 180.922 26.7958C184.141 26.2257 185.536 28.3131 185.536 34.0579L185.474 41.9515V42.2058L185.343 42.9601C185.281 43.8459 184.273 43.9073 184.273 43.9073C184.273 43.9073 183.834 44.416 183.703 44.416C183.703 44.416 182.939 44.609 183.01 46.749C183.071 48.3891 183.641 49.3363 185.281 49.1522L186.228 49.0294C188.184 48.775 188.754 48.775 190.71 49.0294L192.096 49.1522C194.245 49.2749 195.061 48.4593 195.061 46.4333C194.999 44.3459 194.052 43.4688 192.728 43.8459L191.78 44.1617C191.149 44.0389 190.956 43.8459 190.833 42.3286C190.833 42.2672 190.833 42.0743 190.833 41.9515V31.0233C190.894 24.1383 188.053 20.7967 182.562 21.358C180.414 21.551 178.896 22.3052 177.695 23.691C177.44 23.9453 177.256 24.2611 177.063 24.5154L177.186 14.8502V14.4117L177.125 13.3416C177.125 12.2015 176.809 11.7629 175.984 11.7629C175.862 11.7629 175.73 11.7629 175.607 11.7629L175.099 11.8243L174.213 12.0173C173.458 12.0787 172.827 12.1401 171.941 12.0173C171.748 12.0173 171.503 12.0173 171.248 12.0173C168.529 11.5787 167.521 12.4558 167.459 14.859C167.398 16.8148 168.214 17.8234 169.477 17.6393C169.669 17.6393 169.854 17.5779 170.047 17.5165C170.932 17.2621 171.31 17.5165 171.432 18.3409L171.555 18.7795V19.0338C171.617 19.4723 171.617 19.9196 171.617 20.3582V41.9515H171.643Z" fill="white"/>
<path fill-rule="evenodd" clip-rule="evenodd" d="M213.952 36.7768C215.847 36.7768 216.794 35.1981 215.277 29.0762C214.075 24.0857 210.541 20.9896 205.866 21.1826V25.9801C207.822 25.9187 208.962 26.866 209.848 28.9446C210.041 29.3218 210.164 29.6989 210.225 30.1462C210.734 32.0407 210.602 32.1634 209.716 32.1634H205.866V36.7768H213.952ZM205.866 49.5995C210.725 49.5995 214.514 46.3806 215.338 42.5917C215.847 40.5043 214.9 38.9344 213.128 38.8028C212.497 38.8028 211.926 39.0572 211.356 39.6887C211.234 39.8816 211.163 40.0044 211.041 40.1973L210.786 40.5131L210.348 41.2674C209.023 43.4776 207.567 44.3634 205.866 44.1704V49.5995ZM205.866 21.1826C205.112 21.244 204.419 21.3054 203.594 21.5597C201.638 22.0684 199.867 23.1998 198.42 25.0329C196.587 27.3659 195.517 30.4619 195.385 34.5052C195.385 34.5666 195.385 34.6894 195.385 34.8209V35.7068C195.508 43.4074 199.113 48.6523 203.91 49.4767C204.603 49.5381 205.234 49.5995 205.866 49.5995V44.1704C205.489 44.109 205.112 44.0477 204.726 43.9161C203.717 43.539 203.024 42.9689 202.261 41.8287C201.752 41.0744 201.507 40.5043 201.314 39.9956C200.621 37.4083 200.937 36.7768 201.884 36.7768H205.866V32.1634H201.761C200.998 32.1634 200.937 31.9705 201.323 30.2076C201.446 29.8305 201.577 29.5147 201.761 29.1376C202.709 27.0502 203.91 26.1029 205.673 26.0415L205.866 25.9801V21.1826Z" fill="white"/>
<path fill-rule="evenodd" clip-rule="evenodd" d="M221.469 41.9514C221.469 42.0742 221.469 42.2058 221.469 42.2672C221.346 43.3372 221.214 43.6529 221.092 43.8459C220.899 44.1616 220.653 44.223 220.46 44.1616L220.267 44.0388L219.504 43.8459C219.25 43.8459 219.066 43.7845 218.811 43.7845C217.741 43.6617 216.794 45.3632 217.294 47.512C217.61 48.8363 218.434 49.345 220.074 49.1521L220.513 49.0907L221.521 49.0293C223.609 48.775 224.24 48.775 225.942 49.0293L227.012 49.1521C229.099 49.4064 229.976 48.4592 229.915 46.4332C229.915 45.1088 229.599 44.4159 228.968 44.03C228.529 43.8371 228.336 43.7757 228.205 43.8371C226.88 44.2142 226.88 42.0654 226.88 42.0654V41.9426L226.819 41.1182V39.1623V36.6364C226.819 30.1286 227.45 28.3657 229.783 27.4184C231.239 26.9097 232.432 27.2255 233.257 28.2429C234.011 29.1287 234.265 30.1373 234.327 32.6633V39.4868L234.265 41.9514V42.0742L234.204 42.96C234.142 43.8458 233.195 43.7845 232.625 44.223C232.116 44.7931 231.801 46.0561 232.116 47.5032C232.493 48.8276 232.748 49.3363 234.388 49.1433L234.897 49.0819L235.844 49.0205C237.8 48.7662 237.361 48.7662 239.001 49.0205L239.694 49.1433C241.782 49.3977 242.159 48.4504 242.159 46.4244C242.097 45.1001 241.72 44.2142 241.089 43.9599C240.773 43.8371 240.58 43.8371 240.396 43.8371C240.141 43.7757 239.887 42.9513 239.887 42.9513L239.826 41.9426L239.764 40.6797V39.1623V38.5923L239.703 36.7592C239.58 29.4971 240.273 27.7956 243.053 27.1641C243.492 27.1027 243.878 27.1027 244.316 27.1027C247.035 27.5412 246.965 29.3743 247.351 36.575L246.912 43.1442C246.79 44.53 244.509 44.1528 244.509 46.4244C244.509 48.5118 245.518 49.3889 247.474 49.1433L247.789 49.0819L248.859 49.0205C250.877 48.7662 250.561 48.7662 252.526 49.0205L253.911 49.1433C256.122 49.2661 256.946 48.4504 256.876 46.4244C256.814 44.337 255.929 43.9599 254.543 43.8371L253.596 44.1528C253.087 44.0914 252.903 43.3284 252.771 42.9513L252.71 42.004V41.9426C252.71 40.934 252.71 39.6009 252.833 36.7679C252.894 35.6979 252.894 34.6191 252.833 33.4877C252.71 24.454 249.991 20.7966 244.115 21.4281C241.773 21.6211 240.071 22.6297 238.554 24.5855L238.238 24.9627L238.045 25.2784L237.852 24.9627L237.659 24.5241C236.589 22.6297 235.256 21.6825 232.985 21.4281C232.23 21.3053 231.406 21.3053 230.652 21.4895C228.696 21.928 227.371 22.9454 226.047 24.9627C225.915 25.1556 225.854 25.3398 225.731 25.5328V23.8312C225.731 22.5069 225.538 22.0596 224.784 21.7438C224.53 21.621 224.153 21.6211 223.267 21.8052C222.197 21.9982 221.881 22.0596 221.627 21.9982C220.302 21.8052 219.987 21.7438 219.732 21.8052C218.276 21.8052 217.583 22.4981 217.268 23.5067C216.698 26.287 217.645 27.7342 219.162 27.55C219.355 27.4886 219.539 27.4272 219.732 27.3571C220.679 27.1027 221.057 27.4184 221.25 28.2429L221.311 28.6814L221.372 28.9358C221.372 29.3129 221.434 29.7602 221.434 30.1987V41.9514H221.469Z" fill="white"/>
</g>
<defs>
<filter id="filter0_d_6113_11888" x="0" y="0" width="278.595" height="90" filterUnits="userSpaceOnUse" color-interpolation-filters="sRGB">
<feFlood flood-opacity="0" result="BackgroundImageFix"/>
<feColorMatrix in="SourceAlpha" type="matrix" values="0 0 0 0 0 0 0 0 0 0 0 0 0 0 0 0 0 0 127 0" result="hardAlpha"/>
<feOffset dx="5" dy="5"/>
<feGaussianBlur stdDeviation="7.5"/>
<feComposite in2="hardAlpha" operator="out"/>
<feColorMatrix type="matrix" values="0 0 0 0 0 0 0 0 0 0 0 0 0 0 0 0 0 0 0.15 0"/>
<feBlend mode="normal" in2="BackgroundImageFix" result="effect1_dropShadow_6113_11888"/>
<feBlend mode="normal" in="SourceGraphic" in2="effect1_dropShadow_6113_11888" result="shape"/>
</filter>
</defs>
</svg>
